<svg xmlns="http://www.w3.org/2000/svg" width="225.505" height="54.416" viewBox="0 0 225.505 54.416">
	<path id="Path_1" data-name="Path 1" d="M15.393-10.515q1.771,8.347,5.131,8.347a3.933,3.933,0,0,0,2.493-.958,12.6,12.6,0,0,0,2.222-2.349,21.07,21.07,0,0,0,1.825-2.945q.795-1.554,1.3-2.71A1.278,1.278,0,0,1,29.629-12a1.272,1.272,0,0,1,.976.434,1.367,1.367,0,0,1,.4.939,1.118,1.118,0,0,1-.108.506q-.253.614-.741,1.644t-1.192,2.2q-.7,1.174-1.572,2.4a14.138,14.138,0,0,1-1.915,2.2A10.72,10.72,0,0,1,23.251-.054a5.147,5.147,0,0,1-2.475.632A5.761,5.761,0,0,1,16.621-1.1a13.621,13.621,0,0,1-3-5.546,17.781,17.781,0,0,1-3.5,5.348A5.509,5.509,0,0,1,6.287.361a6.478,6.478,0,0,1-2.1-.343A4.351,4.351,0,0,1,2.421-1.12,5.952,5.952,0,0,1,1.192-3.162a8.7,8.7,0,0,1-.47-3.053A11.886,11.886,0,0,1,1.59-10.8a12.133,12.133,0,0,1,2.24-3.6,10.364,10.364,0,0,1,3.053-2.331,7.487,7.487,0,0,1,3.342-.831,1.315,1.315,0,0,1,.939.379,1.268,1.268,0,0,1,.4.958,1.388,1.388,0,0,1-.325.9,1.3,1.3,0,0,1-.867.47,8.58,8.58,0,0,0-2.312.687A7.427,7.427,0,0,0,5.8-12.592a8.078,8.078,0,0,0-1.7,2.62,9.758,9.758,0,0,0-.668,3.794A4.694,4.694,0,0,0,4.173-3.36a2.5,2.5,0,0,0,2.15,1.012,2.885,2.885,0,0,0,1.229-.307,4.337,4.337,0,0,0,1.391-1.21,16.044,16.044,0,0,0,1.626-2.565A45.639,45.639,0,0,0,12.538-10.8q-.614-3.18-1.12-7.335a77.343,77.343,0,0,1-.506-9.286q0-2.24.145-4.679t.47-4.77a39.455,39.455,0,0,1,.867-4.426,19.565,19.565,0,0,1,1.319-3.686A7.918,7.918,0,0,1,15.537-47.5a3.511,3.511,0,0,1,2.385-.921,3.183,3.183,0,0,1,2.023.65A4.7,4.7,0,0,1,21.3-45.961a10.774,10.774,0,0,1,.777,2.782A23.354,23.354,0,0,1,22.33-39.6a49.253,49.253,0,0,1-.723,8.383A81.668,81.668,0,0,1,19.819-23.2q-1.066,3.83-2.258,7.082T15.393-10.515ZM19.62-39.638q0-.9-.054-1.951a12.371,12.371,0,0,0-.253-1.969,6.006,6.006,0,0,0-.524-1.536.974.974,0,0,0-.867-.614q-.9,0-1.68,1.59a19.28,19.28,0,0,0-1.355,4.173,51.716,51.716,0,0,0-.921,5.854,63.121,63.121,0,0,0-.343,6.594q0,3.18.253,6.359t.578,5.673q1.048-2.782,1.987-5.727t1.644-6.016q.7-3.071,1.12-6.2A47.247,47.247,0,0,0,19.62-39.638ZM32.736-3.975a5.619,5.619,0,0,0,1.951,1.68,6.185,6.185,0,0,0,2.927.632,6.23,6.23,0,0,0,3.216-.849,10.618,10.618,0,0,0,2.638-2.222A17.818,17.818,0,0,0,45.6-7.8q.939-1.7,1.7-3.4a1.308,1.308,0,0,1,.506-.6,1.359,1.359,0,0,1,.723-.2,1.257,1.257,0,0,1,.994.434,1.4,1.4,0,0,1,.379.939,1.131,1.131,0,0,1-.036.307,1.586,1.586,0,0,1-.108.271,26.238,26.238,0,0,1-5.438,8.274A9.746,9.746,0,0,1,37.65,1.084,8.664,8.664,0,0,1,33.531.163a8.642,8.642,0,0,1-2.854-2.385,10.052,10.052,0,0,1-1.662-3.306,13.005,13.005,0,0,1-.542-3.686,12.13,12.13,0,0,1,.452-3.4,8.578,8.578,0,0,1,1.3-2.71,6.267,6.267,0,0,1,2.023-1.807,5.243,5.243,0,0,1,2.583-.65,4.193,4.193,0,0,1,1.644.343,4.718,4.718,0,0,1,1.463.976,4.821,4.821,0,0,1,1.048,1.536,5.067,5.067,0,0,1,.4,2.06,7.608,7.608,0,0,1-.506,2.782A9.356,9.356,0,0,1,37.488-7.66,11.845,11.845,0,0,1,35.374-5.6,15.519,15.519,0,0,1,32.736-3.975ZM31.652-6.323a8.81,8.81,0,0,0,2.042-1.192,8.524,8.524,0,0,0,1.572-1.59,7.374,7.374,0,0,0,1.012-1.825,5.438,5.438,0,0,0,.361-1.933,2.274,2.274,0,0,0-.542-1.644,1.707,1.707,0,0,0-1.265-.56,2.6,2.6,0,0,0-1.662.542,4.094,4.094,0,0,0-1.12,1.409,7.287,7.287,0,0,0-.632,1.933,11.513,11.513,0,0,0-.2,2.114A7.976,7.976,0,0,0,31.345-7.7Q31.472-6.974,31.652-6.323ZM51.634-3.975a5.619,5.619,0,0,0,1.951,1.68,6.185,6.185,0,0,0,2.927.632,6.23,6.23,0,0,0,3.216-.849,10.618,10.618,0,0,0,2.638-2.222A17.818,17.818,0,0,0,64.5-7.8q.939-1.7,1.7-3.4a1.308,1.308,0,0,1,.506-.6,1.359,1.359,0,0,1,.723-.2,1.257,1.257,0,0,1,.994.434,1.4,1.4,0,0,1,.379.939,1.131,1.131,0,0,1-.036.307,1.586,1.586,0,0,1-.108.271,26.238,26.238,0,0,1-5.438,8.274,9.746,9.746,0,0,1-6.667,2.854A8.664,8.664,0,0,1,52.429.163a8.642,8.642,0,0,1-2.854-2.385,10.052,10.052,0,0,1-1.662-3.306,13.005,13.005,0,0,1-.542-3.686,12.13,12.13,0,0,1,.452-3.4,8.578,8.578,0,0,1,1.3-2.71,6.267,6.267,0,0,1,2.023-1.807,5.243,5.243,0,0,1,2.583-.65,4.193,4.193,0,0,1,1.644.343,4.718,4.718,0,0,1,1.463.976,4.821,4.821,0,0,1,1.048,1.536,5.067,5.067,0,0,1,.4,2.06,7.608,7.608,0,0,1-.506,2.782A9.356,9.356,0,0,1,56.385-7.66,11.845,11.845,0,0,1,54.271-5.6,15.519,15.519,0,0,1,51.634-3.975ZM50.55-6.323a8.81,8.81,0,0,0,2.042-1.192,8.524,8.524,0,0,0,1.572-1.59,7.374,7.374,0,0,0,1.012-1.825,5.438,5.438,0,0,0,.361-1.933,2.274,2.274,0,0,0-.542-1.644,1.707,1.707,0,0,0-1.265-.56,2.6,2.6,0,0,0-1.662.542,4.094,4.094,0,0,0-1.12,1.409,7.287,7.287,0,0,0-.632,1.933,11.513,11.513,0,0,0-.2,2.114A7.976,7.976,0,0,0,50.243-7.7Q50.369-6.974,50.55-6.323ZM75.3-4.444a4.722,4.722,0,0,0,2.023,2.186,6.247,6.247,0,0,0,3.18.813,15.342,15.342,0,0,0,1.771-.163,8.029,8.029,0,0,0,2.836-1.084A14.7,14.7,0,0,0,88.525-5.6a22.76,22.76,0,0,0,3.5-5.6,1.308,1.308,0,0,1,.506-.6,1.359,1.359,0,0,1,.723-.2,1.257,1.257,0,0,1,.994.434,1.4,1.4,0,0,1,.379.939,1.666,1.666,0,0,1-.145.578A28.221,28.221,0,0,1,91.669-5.33a19.713,19.713,0,0,1-3.36,3.541A14.389,14.389,0,0,1,84.533.452a10.89,10.89,0,0,1-4.029.777A9.073,9.073,0,0,1,77.451.723,8.046,8.046,0,0,1,74.994-.632a6.757,6.757,0,0,1-1.626-1.915,4.427,4.427,0,0,1-.6-2.186,2.988,2.988,0,0,1,.036-.4,1.749,1.749,0,0,1,.2-.56,2.069,2.069,0,0,1,.47-.578,2.44,2.44,0,0,1,.849-.452,15.876,15.876,0,0,0,2.728-1.066A10.261,10.261,0,0,0,79.2-9.214a6.189,6.189,0,0,0,1.409-1.752,4.38,4.38,0,0,0,.506-2.078,2.088,2.088,0,0,0-.65-1.59,2.229,2.229,0,0,0-1.59-.614,3.273,3.273,0,0,0-1.915.668,9.282,9.282,0,0,0-1.825,1.771,18.074,18.074,0,0,0-1.68,2.529A32.6,32.6,0,0,0,71.995-7.3q-.668,1.554-1.174,3.089t-.831,2.836q-.108.4-.235.867a3.388,3.388,0,0,1-.379.885,2.416,2.416,0,0,1-.614.687,1.525,1.525,0,0,1-.939.271A1.565,1.565,0,0,1,66.773.885,1.979,1.979,0,0,1,66.268-.65q0-.217.018-1.662t.054-3.776q.036-2.331.09-5.348t.09-6.4q.036-3.378.108-6.956t.108-6.974q.036-3.4.09-6.45t.09-5.42q.036-2.367.054-3.866t.018-1.789a1.218,1.218,0,0,1,.434-.958,1.4,1.4,0,0,1,.939-.379,1.359,1.359,0,0,1,.976.379,1.311,1.311,0,0,1,.4.994q0,.072-.018,1.427t-.054,3.631q-.036,2.276-.09,5.312t-.108,6.45q-.054,3.415-.108,7.028t-.108,7.046q-.054,3.433-.09,6.54t-.072,5.492a37.063,37.063,0,0,1,1.481-3.884A21.7,21.7,0,0,1,72.7-13.983a12.255,12.255,0,0,1,2.764-2.854,5.659,5.659,0,0,1,3.415-1.12,4.987,4.987,0,0,1,1.951.379A4.858,4.858,0,0,1,82.4-16.531a4.858,4.858,0,0,1,1.048,1.572,4.987,4.987,0,0,1,.379,1.951,6.234,6.234,0,0,1-.723,2.981A8.765,8.765,0,0,1,81.19-7.606a13.113,13.113,0,0,1-2.728,1.861A19.408,19.408,0,0,1,75.3-4.444Zm20.74-8.925q-.217.578-.524,1.3t-.7,1.518a4,4,0,0,1-.668.958,1.2,1.2,0,0,1-.885.343,1.284,1.284,0,0,1-.976-.379,1.243,1.243,0,0,1-.361-.885,1.131,1.131,0,0,1,.036-.307,2.84,2.84,0,0,1,.181-.416A22.4,22.4,0,0,0,93.53-14.4a22.722,22.722,0,0,0,.741-2.836,13.593,13.593,0,0,1-.361-1.409,6.457,6.457,0,0,1-.108-1.192,3.363,3.363,0,0,1,.506-1.933,1.613,1.613,0,0,1,1.409-.741,1.515,1.515,0,0,1,1.319.723,3.092,3.092,0,0,1,.488,1.771,6.262,6.262,0,0,1-.108,1.156q-.108.578-.289,1.445.831,2.06,1.662,3.649t1.481,2.909a23.954,23.954,0,0,1,1.066,2.475,6.8,6.8,0,0,1,.416,2.313,7,7,0,0,1-.614,2.891A5.447,5.447,0,0,1,99.112-.867a1.838,1.838,0,0,0,.361.036h.361a7.838,7.838,0,0,0,3.794-.939,12.121,12.121,0,0,0,3.125-2.439,19.548,19.548,0,0,0,2.475-3.324,33.665,33.665,0,0,0,1.879-3.631Q111.47-12,112.12-12a1.152,1.152,0,0,1,.958.434,1.483,1.483,0,0,1,.343.939,1.361,1.361,0,0,1-.108.542q-.4.976-1.03,2.222a24.553,24.553,0,0,1-1.518,2.565,22.039,22.039,0,0,1-2.042,2.583A15.444,15.444,0,0,1,106.14-.452a12.944,12.944,0,0,1-3.125,1.59,11.167,11.167,0,0,1-3.722.6,11.776,11.776,0,0,1-4.5-.849,7.329,7.329,0,0,1-3.378-2.8A1.218,1.218,0,0,1,91.2-2.6a1.316,1.316,0,0,1,.416-.958,1.316,1.316,0,0,1,.958-.416,1.326,1.326,0,0,1,.976.4.975.975,0,0,0,.253.235q.217.163.524.361a3.357,3.357,0,0,0,.723.343,2.567,2.567,0,0,0,.849.145,2.775,2.775,0,0,0,1.463-.361,3.083,3.083,0,0,0,.958-.885,3.656,3.656,0,0,0,.524-1.12A4,4,0,0,0,99-5.89,5.9,5.9,0,0,0,98.715-7.7,12.687,12.687,0,0,0,97.974-9.5q-.452-.9-.976-1.861A20.515,20.515,0,0,1,96.041-13.369Zm17.633,10.3q.578-1.229,1.337-2.656t1.626-2.927q.867-1.5,1.843-2.981t2.023-2.782a7.175,7.175,0,0,1,2.114-1.825,4.334,4.334,0,0,1,2.005-.56,3.416,3.416,0,0,1,1.644.379,3.281,3.281,0,0,1,1.156,1.03,4.866,4.866,0,0,1,.687,1.518A7.168,7.168,0,0,1,128.344-12a20.145,20.145,0,0,1-.163,2.222,25.061,25.061,0,0,0-.163,2.909,16.212,16.212,0,0,0,.09,1.716,6.73,6.73,0,0,0,.325,1.518,2.536,2.536,0,0,0,.7,1.084,1.786,1.786,0,0,0,1.229.416A3.511,3.511,0,0,0,132.1-2.62a8.19,8.19,0,0,0,1.7-1.3,16.7,16.7,0,0,0,1.59-1.807q.759-.994,1.373-1.987t1.084-1.915q.47-.921.759-1.536A1.278,1.278,0,0,1,139.87-12a1.2,1.2,0,0,1,.976.434,1.439,1.439,0,0,1,.361.939,1.361,1.361,0,0,1-.108.542q-.145.289-.56,1.192a23.645,23.645,0,0,1-1.12,2.1q-.7,1.192-1.644,2.493A18.033,18.033,0,0,1,135.7-1.9,10.936,10.936,0,0,1,133.24-.09a5.787,5.787,0,0,1-2.764.7,4.591,4.591,0,0,1-2.674-.7,4.881,4.881,0,0,1-1.572-1.789,7.7,7.7,0,0,1-.759-2.421,17.688,17.688,0,0,1-.2-2.6q0-.65.054-1.391t.126-1.463q.072-.723.126-1.355t.054-1.066a2.64,2.64,0,0,0-.307-1.518.883.883,0,0,0-.7-.4,2.112,2.112,0,0,0-1.319.668,12.332,12.332,0,0,0-1.554,1.752,28.556,28.556,0,0,0-1.626,2.439q-.813,1.355-1.572,2.692t-1.373,2.547q-.614,1.21-1.012,2.005A5.289,5.289,0,0,1,114.631.054a2.574,2.574,0,0,1-1.391.524,1.944,1.944,0,0,1-1.716-.885,3.759,3.759,0,0,1-.6-2.15V-4.733q0-6.829.018-13.026t.181-11.526q.163-5.33.542-9.647a48.733,48.733,0,0,1,1.138-7.371,14.178,14.178,0,0,1,1.933-4.715,3.5,3.5,0,0,1,2.945-1.662,4,4,0,0,1,2.565.831,5.98,5.98,0,0,1,1.7,2.258,12.576,12.576,0,0,1,.939,3.324,26.5,26.5,0,0,1,.289,3.993,44.845,44.845,0,0,1-.777,8.365,61.438,61.438,0,0,1-2.078,8,70.449,70.449,0,0,1-3.035,7.606q-1.734,3.7-3.649,7.208V-4.77Zm0-13.333q1.518-3.324,2.764-6.486A65.86,65.86,0,0,0,118.57-29.2a54.683,54.683,0,0,0,1.391-6.377,43.567,43.567,0,0,0,.506-6.739q0-.578-.054-1.843a15.906,15.906,0,0,0-.325-2.565A7.7,7.7,0,0,0,119.256-49a1.735,1.735,0,0,0-1.572-.976q-.795,0-1.373,1.066a12.021,12.021,0,0,0-1.012,2.891,38.106,38.106,0,0,0-.723,4.246q-.289,2.421-.47,5.131t-.271,5.564q-.09,2.854-.126,5.546t-.036,5.041Zm52.862,6.323q-.145.289-.6,1.21t-1.156,2.114q-.7,1.192-1.644,2.493a16.509,16.509,0,0,1-2.1,2.385A11.432,11.432,0,0,1,158.551-.09a5.962,5.962,0,0,1-2.818.7,4.958,4.958,0,0,1-3.523-1.337,7.762,7.762,0,0,1-2.078-3.36,10.61,10.61,0,0,1-2.927,3.27,5.827,5.827,0,0,1-3.4,1.21,5.834,5.834,0,0,1-2.421-.488,5.211,5.211,0,0,1-1.843-1.373,6.383,6.383,0,0,1-1.174-2.078,7.856,7.856,0,0,1-.416-2.6,12.107,12.107,0,0,1,.958-4.968,11.473,11.473,0,0,1,2.439-3.6,10.063,10.063,0,0,1,3.27-2.168,9.193,9.193,0,0,1,3.451-.723,6.6,6.6,0,0,1,2.06.307,9.817,9.817,0,0,1,1.608.668,6.121,6.121,0,0,1,1.03.668q.361.307.4.343a1.5,1.5,0,0,1,.4.976,1.345,1.345,0,0,1-.4.958,1.258,1.258,0,0,1-.939.416,1.326,1.326,0,0,1-.976-.4q-.072-.072-.325-.271a4.09,4.09,0,0,0-.687-.416,5.617,5.617,0,0,0-1.03-.379,5.159,5.159,0,0,0-1.355-.163,6.434,6.434,0,0,0-2.385.506,6.751,6.751,0,0,0-2.312,1.572,8.806,8.806,0,0,0-1.752,2.674,9.446,9.446,0,0,0-.7,3.812,6.909,6.909,0,0,0,.145,1.391,3.862,3.862,0,0,0,.506,1.283,2.807,2.807,0,0,0,.976.939,2.949,2.949,0,0,0,1.518.361,3.384,3.384,0,0,0,1.5-.434,5.454,5.454,0,0,0,1.626-1.337A9.694,9.694,0,0,0,148.379-6.4a11.408,11.408,0,0,0,.885-3.252,1.341,1.341,0,0,1,.47-.849,1.391,1.391,0,0,1,.939-.343,1.187,1.187,0,0,1,.885.4,1.428,1.428,0,0,1,.416.9q.036.687.145,1.933a11.846,11.846,0,0,0,.488,2.475A6.044,6.044,0,0,0,153.745-3a2.589,2.589,0,0,0,2.1.9,3.512,3.512,0,0,0,1.716-.47,8.094,8.094,0,0,0,1.662-1.247,14.077,14.077,0,0,0,1.554-1.771q.741-.994,1.355-2.005t1.084-1.951q.47-.939.795-1.626a1.382,1.382,0,0,1,.524-.614,1.362,1.362,0,0,1,.741-.217,1.235,1.235,0,0,1,.994.452,1.467,1.467,0,0,1,.379.958A1.275,1.275,0,0,1,166.536-10.081Zm5.528,6.829q.578-1.192,1.337-2.62t1.626-2.891q.867-1.463,1.825-2.909t2.005-2.746a7.175,7.175,0,0,1,2.114-1.825,4.334,4.334,0,0,1,2.005-.56,3.1,3.1,0,0,1,2.782,1.373,6.05,6.05,0,0,1,.9,3.4q0,.47-.054,1.138T186.5-9.467q-.054.759-.108,1.536t-.054,1.463a14.724,14.724,0,0,0,.09,1.662,5.007,5.007,0,0,0,.343,1.391,2.193,2.193,0,0,0,.723.939,2.033,2.033,0,0,0,1.229.343A4.189,4.189,0,0,0,191.4-3.2a14.61,14.61,0,0,0,2.4-2.529,23.063,23.063,0,0,0,1.915-2.981q.813-1.518,1.21-2.457a1.382,1.382,0,0,1,.524-.614,1.362,1.362,0,0,1,.741-.217,1.235,1.235,0,0,1,.994.452,1.467,1.467,0,0,1,.379.958,1.275,1.275,0,0,1-.108.506q-.145.289-.578,1.192t-1.138,2.078q-.7,1.174-1.644,2.493a16.636,16.636,0,0,1-2.078,2.4,11.729,11.729,0,0,1-2.457,1.807,5.673,5.673,0,0,1-2.764.723,4.915,4.915,0,0,1-2.638-.632,4.571,4.571,0,0,1-1.59-1.662,6.793,6.793,0,0,1-.777-2.276,15.926,15.926,0,0,1-.2-2.511q0-.542.054-1.229t.145-1.445q.09-.759.145-1.518t.054-1.445a2.481,2.481,0,0,0-.361-1.572.966.966,0,0,0-.65-.416,2.112,2.112,0,0,0-1.319.668,12.332,12.332,0,0,0-1.554,1.752q-.813,1.084-1.662,2.439t-1.59,2.692q-.741,1.337-1.373,2.547t-.994,2.005A5.381,5.381,0,0,1,173.04.054a2.5,2.5,0,0,1-1.481.524,2.271,2.271,0,0,1-1.68-.632,2.419,2.419,0,0,1-.632-1.789q0-.253.072-.994t.181-1.771q.108-1.03.217-2.222t.217-2.367q.108-1.174.181-2.186t.072-1.7q0-.9-.072-1.734a1.654,1.654,0,0,0-.289-1.012q-.325.108-1.156,1.355a28.256,28.256,0,0,0-2.132,4.39,1.348,1.348,0,0,1-.542.614,1.453,1.453,0,0,1-.759.217,1.227,1.227,0,0,1-.976-.416,1.416,1.416,0,0,1-.361-.958,1.548,1.548,0,0,1,.108-.542,25.933,25.933,0,0,1,3.053-5.691,3.846,3.846,0,0,1,2.836-1.825,2.351,2.351,0,0,1,1.409.416,2.957,2.957,0,0,1,.921,1.1,5.917,5.917,0,0,1,.506,1.518,8.824,8.824,0,0,1,.163,1.7q0,.65-.09,2.023t-.235,2.945q-.145,1.572-.271,3.125T172.064-3.252Zm54.163-32.917a1.156,1.156,0,0,1-.4.921,1.441,1.441,0,0,1-.976.343H206.535v.4a36.408,36.408,0,0,1-.325,4.7q-.325,2.493-.885,4.968t-1.265,4.824q-.7,2.349-1.445,4.336a37.246,37.246,0,0,1-1.463,3.451,12.494,12.494,0,0,1-1.3,2.186,21.625,21.625,0,0,0,1.12,3.089,12.952,12.952,0,0,0,1.463,2.493,7.163,7.163,0,0,0,1.752,1.68,3.629,3.629,0,0,0,2.023.614,3.87,3.87,0,0,0,2.511-1.066,14.667,14.667,0,0,0,2.313-2.529,26.442,26.442,0,0,0,1.879-2.963,24.386,24.386,0,0,0,1.174-2.4A1.278,1.278,0,0,1,215.352-12a1.257,1.257,0,0,1,.994.434,1.4,1.4,0,0,1,.379.939,1.275,1.275,0,0,1-.108.506q-.108.253-.524,1.156t-1.084,2.1q-.668,1.192-1.554,2.511a15.387,15.387,0,0,1-1.987,2.4A11.533,11.533,0,0,1,209.1-.145a5.308,5.308,0,0,1-2.674.723,6.89,6.89,0,0,1-4.48-1.626A12.927,12.927,0,0,1,198.568-5.6a27.554,27.554,0,0,1-2.114-6.937,49.618,49.618,0,0,1-.723-8.78q0-1.192.036-2.8t.145-3.4q.108-1.789.325-3.686t.578-3.7H183.844a1.441,1.441,0,0,1-.976-.343,1.156,1.156,0,0,1-.4-.921,1.156,1.156,0,0,1,.4-.921,1.441,1.441,0,0,1,.976-.343H197.43a16.708,16.708,0,0,1,.849-2.385A8.811,8.811,0,0,1,199.4-41.7a5.055,5.055,0,0,1,1.409-1.247,3.353,3.353,0,0,1,1.716-.452,2.74,2.74,0,0,1,1.572.452,3.81,3.81,0,0,1,1.138,1.247,7.031,7.031,0,0,1,.741,1.879,18.1,18.1,0,0,1,.416,2.385h18.464a1.441,1.441,0,0,1,.976.343A1.156,1.156,0,0,1,226.228-36.169ZM199.02-13.658a47.322,47.322,0,0,0,1.969-5.149q.885-2.764,1.518-5.583t.976-5.528a39.9,39.9,0,0,0,.343-4.986h-4.264a44.407,44.407,0,0,0-.813,5.546q-.307,3.306-.307,8.04,0,2.638.145,4.426A28.142,28.142,0,0,0,199.02-13.658Zm3.36-27.027q-.325,0-.939.7a7.889,7.889,0,0,0-1.229,2.547h3.469a9.878,9.878,0,0,0-.524-2.385Q202.813-40.686,202.38-40.686ZM199.6-11.057v.036Z" transform="translate(-0.723 52.682)" fill="#fff"/>
</svg>