<svg xmlns="http://www.w3.org/2000/svg" width="395.355" height="149.572" viewBox="0 0 395.355 149.572">
  <g id="mascot-chilling" transform="translate(8.252 143.384) rotate(-90)">
    <g id="head" transform="matrix(0.616, 0.788, -0.788, 0.616, 94.204, 6.818)" fill="#fff">
      <path d="M 27.63462448120117 68.13101959228516 C 27.63388442993164 68.13101959228516 27.63375663757324 68.13101959228516 27.63301658630371 68.13101959228516 C 23.49052429199219 68.13078308105469 19.41718482971191 67.28367614746094 15.52615451812744 65.61323547363281 C 11.53529262542725 63.89992523193359 7.932738780975342 61.40169525146484 4.818539142608643 58.18790817260742 C 1.724415898323059 54.99483108520508 -1.00249183177948 50.9338493347168 -3.067368745803833 46.44395446777344 C -5.140445709228516 41.93623352050781 -6.541138172149658 37.00777053833008 -7.11799955368042 32.19138717651367 C -7.720676422119141 27.15944862365723 -7.446584224700928 22.3969554901123 -6.303338050842285 18.03623199462891 C -5.102645397186279 13.45643329620361 -2.975768804550171 9.509602546691895 0.01821590960025787 6.305356025695801 C 3.457554340362549 2.624494314193726 8.413784980773926 -0.4622132778167725 14.35106182098389 -2.621028661727905 C 20.16573905944824 -4.735259532928467 26.57903099060059 -5.852782726287842 32.89764785766602 -5.852782726287842 C 37.82387924194336 -5.852782726287842 42.56001663208008 -5.144951820373535 46.59407806396484 -3.805797815322876 C 50.76375579833984 -2.421643972396851 54.14101409912109 -0.4163671135902405 56.63201522827148 2.154294490814209 C 59.43473815917969 5.046648502349854 61.38355255126953 8.942278861999512 62.42429351806641 13.73295593261719 C 63.42033767700195 18.31781768798828 63.53584671020508 23.67380142211914 62.75835418701172 29.22187995910645 C 61.99930953979492 34.63832473754883 60.40499877929688 40.17663192749023 58.14780044555664 45.23810958862305 C 55.88229370117188 50.31821823120117 52.99266052246094 54.81438827514648 49.79129409790039 58.24057006835938 C 46.73102951049805 61.51573944091797 43.20383071899414 64.03123474121094 39.30764770507812 65.71715545654297 C 35.60626220703125 67.31880187988281 31.67848777770996 68.13101959228516 27.63462448120117 68.13101959228516 Z" stroke="none"/>
      <path d="M 32.89282989501953 -1.852767944335938 L 32.89340972900391 -1.852767944335938 C 20.87874984741211 -1.852767944335938 9.121692657470703 2.421432495117188 2.940910339355469 9.036270141601562 C -8.167766571044922 20.92505264282227 -3.627246856689453 43.72402954101562 7.691112518310547 55.40435028076172 C 13.14421081542969 61.03182983398438 20.22631072998047 64.13101196289062 27.63279151916504 64.13101196289062 C 34.84243011474609 64.13101196289062 41.67383193969727 61.06923294067383 46.86859130859375 55.50967025756836 C 58.59595108032227 42.95873260498047 64.14867401123047 15.65935134887695 53.75945281982422 4.937870025634766 C 49.57826995849609 0.6229896545410156 41.97269058227539 -1.852088928222656 32.89282989501953 -1.852767944335938 M 32.89763641357422 -9.852775573730469 C 43.40716552734375 -9.851997375488281 53.40351867675781 -6.925460815429688 59.50461196899414 -0.6292686462402344 C 73.40921020507812 13.71998977661133 67.10365295410156 45.5712890625 52.71397018432617 60.97149276733398 C 38.32431030273438 76.37167358398438 15.85057830810547 75.32075500488281 1.945949554443359 60.97149276733398 C -11.95866775512695 46.62223052978516 -17.29414749145508 18.97463226318359 -2.904468536376953 3.574451446533203 C 5.171272277832031 -5.06842041015625 19.4555549621582 -9.853775024414062 32.89763641357422 -9.852775573730469 Z" stroke="none" fill="#2e2e2e"/>
    </g>
    <g id="body" transform="translate(27.273 88.328)" fill="#8892bf">
      <path d="M 80.73766326904297 137 L 3.264715194702148 137 C 2.737434387207031 127.532112121582 1.364721298217773 101.5772247314453 0.5956902503967285 74.95941162109375 C 0.03250841423869133 55.46632385253906 -0.1014461293816566 39.44664001464844 0.1975765973329544 27.34534645080566 C 0.373394787311554 20.23005104064941 0.701712965965271 14.43529987335205 1.173372030258179 10.12202739715576 C 1.841328263282776 4.01380729675293 2.615920543670654 2.530999898910522 2.731191873550415 2.3391273021698 C 2.874603271484375 2.15200138092041 3.606916189193726 1.351063370704651 6.222280979156494 0.3614819943904877 C 8.432099342346191 -0.4746316373348236 11.3519401550293 -1.205358862876892 14.90069007873535 -1.810404419898987 C 21.72082710266113 -2.973222494125366 30.68832588195801 -3.613631725311279 40.15130233764648 -3.613631725311279 C 49.98403167724609 -3.613631725311279 59.63814544677734 -2.937586307525635 67.33528137207031 -1.710063457489014 C 71.28091430664062 -1.080813407897949 74.57605743408203 -0.3304271101951599 77.12916564941406 0.5202547311782837 C 80.16432189941406 1.531556725502014 81.20869445800781 2.373246431350708 81.50310516357422 2.667675256729126 C 81.58037567138672 2.793692350387573 81.88859558105469 3.357783317565918 82.26651000976562 4.871459484100342 C 82.61625671386719 6.272345542907715 82.93077850341797 8.106072425842285 83.20134735107422 10.32166385650635 C 83.72641754150391 14.62129974365234 84.08964538574219 20.39925384521484 84.28093719482422 27.49505043029785 C 84.60666656494141 39.57777786254883 84.44246673583984 55.57093811035156 83.79289245605469 75.03028106689453 C 82.90485382080078 101.6332321166992 81.33732604980469 127.5694274902344 80.73766326904297 137 Z" stroke="none"/>
      <path d="M 40.14634704589844 0.386383056640625 L 40.14651489257812 0.386383056640625 C 19.68330383300781 0.386383056640625 8.837600708007812 3.179634094238281 6.061576843261719 4.787399291992188 C 2.696006774902344 15.38521575927734 3.864280700683594 76.21527099609375 7.038154602050781 133 L 76.99513244628906 133 C 80.59681701660156 76.5782470703125 81.9810791015625 16.03538513183594 78.26936340332031 5.267524719238281 C 74.85526275634766 3.399253845214844 61.45532989501953 0.3868255615234375 40.14634704589844 0.386383056640625 M 40.15134048461914 -7.613632202148438 C 59.7691650390625 -7.613204956054688 79.92572021484375 -4.942230224609375 84.48606872558594 0 C 93.39042663574219 9.6500244140625 84.48606872558594 141 84.48606872558594 141 L -0.5139312744140625 141 C -0.5139312744140625 141 -8.261955261230469 10.64091491699219 -0.5139312744140625 0 C 3.265975952148438 -5.191207885742188 21.46402359008789 -7.614028930664062 40.15134048461914 -7.613632202148438 Z" stroke="none" fill="#2e2e2e"/>
    </g>
    <path id="left-hand" d="M445.263,428.452s-40.843,50.429-63.4,61.037c-15.878,7.468-33.35-22.45-42.4-41.026-3.661-7.511-5.919-13.191-5.919-13.191" transform="translate(-336.013 -336.498)" fill="none" stroke="#2e2e2e" stroke-width="8"/>
    <path id="right-hand" d="M503.062,427.1s-20.753-44.815-11.444-57.226,46.026-14.48,46.026-14.48" transform="translate(-473.088 -336.498)" fill="none" stroke="#2e2e2e" stroke-width="8"/>
    <path id="pant" d="M469.63,541.835l-71.79-.424.874,16.406,70.011.1Z" transform="translate(-364.408 -336.498)" fill="#4f5b93"/>
    <path id="right-leg" d="M394.7,565.826s-20.523,25.756-19.557,59.356c.886,30.837,19.557,58.646,19.557,62.058,0,7.092-6.111,12.929-6.111,12.929" transform="translate(-364.372 -340.474)" fill="none" stroke="#2f2f2f" stroke-width="8"/>
    <path id="right-leg-2" data-name="right-leg" d="M394.7,565.826s18.6,43.857,19.561,77.456c.886,30.837-93.6,67.955-93.6,71.367v12.929" transform="translate(-286.614 -340.474)" fill="none" stroke="#2f2f2f" stroke-width="8"/>
  </g>
</svg>
