<svg xmlns="http://www.w3.org/2000/svg" width="120.194" height="405.488" viewBox="0 0 120.194 405.488">
  <g id="mascot-think" transform="translate(0.473 0)">
    <g id="head" transform="translate(17.892 9.853)" fill="#fff">
      <path d="M 28.21198081970215 68.13101959228516 C 24.16707420349121 68.13101959228516 20.23907470703125 67.31880187988281 16.53707313537598 65.71695709228516 C 12.64081192016602 64.03105163574219 9.113627433776855 61.51563262939453 6.053473949432373 58.24057006835938 C 2.852104663848877 54.81438827514648 -0.0375262163579464 50.31820297241211 -2.303049325942993 45.23810958862305 C -4.560249328613281 40.17663192749023 -6.154556751251221 34.63832473754883 -6.91360330581665 29.22187995910645 C -7.691095352172852 23.67380142211914 -7.575587749481201 18.31781768798828 -6.579541683197021 13.73295593261719 C -5.538803100585938 8.942278861999512 -3.589987754821777 5.046648502349854 -0.7872647047042847 2.154294490814209 C 1.7037353515625 -0.4163671135902405 5.080996990203857 -2.421643972396851 9.250689506530762 -3.805797815322876 C 13.28473567962646 -5.144951820373535 18.02088928222656 -5.852782726287842 22.94712066650391 -5.852782726287842 C 29.2657356262207 -5.852782726287842 35.67902755737305 -4.735259532928467 41.49370574951172 -2.621028661727905 C 47.43099594116211 -0.4622132778167725 52.38722610473633 2.624494314193726 55.82656478881836 6.305356025695801 C 58.82054901123047 9.509602546691895 60.94742584228516 13.45643329620361 62.14812088012695 18.03623199462891 C 63.29136657714844 22.3969554901123 63.56546020507812 27.15944862365723 62.9627799987793 32.19138717651367 C 62.38592147827148 37.00777053833008 60.9852294921875 41.93623352050781 58.91215133666992 46.44395446777344 C 56.84727478027344 50.9338493347168 54.12036514282227 54.99483108520508 51.02622604370117 58.18790817260742 C 47.91191864013672 61.40180206298828 44.30934906005859 63.90012359619141 40.31856536865234 65.61344909667969 C 36.42747497558594 67.28398895263672 32.35422897338867 68.13101959228516 28.21198081970215 68.13101959228516 Z" stroke="none"/>
      <path d="M 22.94712829589844 -1.852767944335938 C 13.87096786499023 -1.852767944335938 6.267127990722656 0.6223297119140625 2.085308074951172 4.937870025634766 C -8.303932189941406 15.65933227539062 -2.751213073730469 42.95873260498047 8.976146697998047 55.50967025756836 C 14.17090606689453 61.06923294067383 21.0023078918457 64.13101196289062 28.21196746826172 64.13101196289062 C 35.61844635009766 64.13101196289062 42.70054626464844 61.03182983398438 48.15364837646484 55.40435028076172 C 59.47202682495117 43.72402954101562 64.01255035400391 20.92505264282227 52.90386962890625 9.036270141601562 C 46.72308731079102 2.421432495117188 34.9643669128418 -1.852767944335938 22.94712829589844 -1.852767944335938 M 22.94712829589844 -9.852775573730469 C 36.38921737670898 -9.852775573730469 50.67350769042969 -5.06842041015625 58.74924850463867 3.574451446533203 C 73.13893127441406 18.97463226318359 67.80342864990234 46.62223052978516 53.89880752563477 60.97149276733398 C 39.99418640136719 75.32075500488281 17.52045059204102 76.37167358398438 3.130767822265625 60.97149276733398 C -11.25889587402344 45.5712890625 -17.56447601318359 13.71998977661133 -3.65985107421875 -0.6292686462402344 C 2.441242218017578 -6.925460815429688 12.43759536743164 -9.852775573730469 22.94712829589844 -9.852775573730469 Z" stroke="none" fill="#2e2e2e"/>
    </g>
    <g id="body" transform="translate(3.957 88.328)" fill="#8892bf">
      <path d="M 81.22138214111328 137 L 3.748389720916748 137 C 3.148728847503662 127.5694274902344 1.581199526786804 101.6332321166992 0.6931588649749756 75.03028106689453 C 0.04359066858887672 55.57093811035156 -0.1206138804554939 39.57777786254883 0.2051133960485458 27.49505043029785 C 0.3964088559150696 20.39925384521484 0.7596361041069031 14.62129974365234 1.284704327583313 10.32166385650635 C 1.555272459983826 8.106072425842285 1.869795203208923 6.272345542907715 2.219545125961304 4.871459484100342 C 2.597458124160767 3.357783317565918 2.905677080154419 2.793692350387573 2.982951164245605 2.667675256729126 C 3.277358770370483 2.373246431350708 4.321732997894287 1.531556725502014 7.35688591003418 0.5202547311782837 C 9.909999847412109 -0.3304271101951599 13.20515918731689 -1.080813407897949 17.15077209472656 -1.710063457489014 C 24.84790802001953 -2.937586307525635 34.50204467773438 -3.613631725311279 44.33477401733398 -3.613631725311279 C 53.79774856567383 -3.613631725311279 62.76525115966797 -2.973222494125366 69.58538818359375 -1.810404419898987 C 73.1341552734375 -1.205358862876892 76.05400085449219 -0.4746316373348236 78.26381683349609 0.3615047037601471 C 80.87918090820312 1.351064085960388 81.61149597167969 2.15200138092041 81.75490570068359 2.3391273021698 C 81.87017822265625 2.530999898910522 82.64476776123047 4.01380729675293 83.31272888183594 10.12202739715576 C 83.78438568115234 14.43529987335205 84.11270141601562 20.23005104064941 84.28852081298828 27.34534645080566 C 84.58754730224609 39.44664001464844 84.45359039306641 55.46632385253906 83.89041137695312 74.95941162109375 C 83.12137603759766 101.5772247314453 81.74866485595703 127.532112121582 81.22138214111328 137 Z" stroke="none"/>
      <path d="M 44.3347282409668 0.386383056640625 C 22.75204086303711 0.386383056640625 9.283531188964844 3.477806091308594 6.24407958984375 5.189315795898438 C 2.497848510742188 15.73638916015625 3.880340576171875 76.43852233886719 7.490943908691406 133 L 77.447998046875 133 C 80.62235260009766 76.21641540527344 81.79067993164062 15.38662719726562 78.42449188232422 4.787353515625 C 75.64836883544922 3.179618835449219 64.80146789550781 0.386383056640625 44.3347282409668 0.386383056640625 M 44.33473968505859 -7.613632202148438 C 63.02206420898438 -7.613632202148438 81.22011566162109 -5.191207885742188 85.00000762939453 0 C 92.74803161621094 10.64091491699219 85.00000762939453 141 85.00000762939453 141 L 7.62939453125e-06 141 C 7.62939453125e-06 141 -8.904350280761719 9.6500244140625 7.62939453125e-06 0 C 4.560340881347656 -4.942230224609375 24.7169075012207 -7.613632202148438 44.33473968505859 -7.613632202148438 Z" stroke="none" fill="#2e2e2e"/>
    </g>
    <path id="left-hand" d="M393.813,428.452s36.027,57.419,32.029,14.577,19.422-45.7,19.422-45.7" transform="translate(-387.346 -336.498)" fill="none" stroke="#2e2e2e" stroke-width="8"/>
    <path id="right-hand" d="M473.088,427.1s28.11,31.535,29.9,59.254-27.378,39.208-27.378,39.208" transform="translate(-387.346 -336.498)" fill="none" stroke="#2e2e2e" stroke-width="8"/>
    <path id="pant" d="M397.841,541.835l71.79-.424-.874,16.406-70.011.1Z" transform="translate(-387.346 -336.498)" opacity="0.3"/>
    <path id="right-leg" d="M388.971,565.826s.966,33.519,0,67.118c-.886,30.837-4.1,97.529-4.1,100.94,0,7.092,13.936,8.088,13.936,8.088" transform="translate(-303.584 -340.474)" fill="none" stroke="#2f2f2f" stroke-width="8"/>
    <path id="right-leg-2" data-name="right-leg" d="M388.971,565.826s.966,33.519,0,67.118c-.886,30.837-4.1,97.529-4.1,100.94,0,7.092,13.936,8.088,13.936,8.088" transform="translate(-381.342 -340.474)" fill="none" stroke="#2f2f2f" stroke-width="8"/>
  </g>
</svg>
