<svg xmlns="http://www.w3.org/2000/svg" width="156.277" height="404.464" viewBox="0 0 156.277 404.464">
  <g id="mascot-hello" transform="translate(-887.958 -336.498)">
    <g id="head" transform="translate(945.744 346.351)" fill="#fff">
      <path d="M 28.21196556091309 68.13101959228516 C 24.16705894470215 68.13101959228516 20.23905944824219 67.31880187988281 16.53705787658691 65.71695709228516 C 12.64079666137695 64.03105163574219 9.113612174987793 61.51563262939453 6.053458690643311 58.24057006835938 C 2.852089405059814 54.81438827514648 -0.0375414751470089 50.31821823120117 -2.303049087524414 45.23810958862305 C -4.560249328613281 40.17663192749023 -6.154556751251221 34.63832473754883 -6.913602828979492 29.22187995910645 C -7.691095352172852 23.67380142211914 -7.575587749481201 18.31781768798828 -6.579541683197021 13.73295593261719 C -5.538803100585938 8.942278861999512 -3.589987516403198 5.046648502349854 -0.7872645258903503 2.154294490814209 C 1.70373547077179 -0.4163671135902405 5.080996990203857 -2.421643972396851 9.250674247741699 -3.805797815322876 C 13.28473567962646 -5.144951820373535 18.0208740234375 -5.852782726287842 22.94710540771484 -5.852782726287842 C 29.26572036743164 -5.852782726287842 35.67901229858398 -4.735259532928467 41.49369049072266 -2.621028661727905 C 47.43096542358398 -0.4622132778167725 52.3871955871582 2.624494314193726 55.82653427124023 6.305356025695801 C 58.82053375244141 9.509602546691895 60.94741058349609 13.45644855499268 62.14809036254883 18.03623199462891 C 63.29135131835938 22.3969554901123 63.56544494628906 27.15944862365723 62.96274948120117 32.19138717651367 C 62.38589096069336 37.00777053833008 60.98521423339844 41.93623352050781 58.91213607788086 46.44395446777344 C 56.84724426269531 50.9338493347168 54.12033462524414 54.99483108520508 51.02621078491211 58.18790817260742 C 47.91190338134766 61.40180206298828 44.30933380126953 63.90012359619141 40.31855010986328 65.61344909667969 C 36.42745971679688 67.28398895263672 32.35421371459961 68.13101959228516 28.21196556091309 68.13101959228516 Z" stroke="none"/>
      <path d="M 22.94711303710938 -1.852767944335938 C 13.87095260620117 -1.852767944335938 6.267131805419922 0.6223297119140625 2.085311889648438 4.937870025634766 C -8.303928375244141 15.65933227539062 -2.751209259033203 42.95873260498047 8.976150512695312 55.50967025756836 C 14.17091369628906 61.06923294067383 21.00231170654297 64.13101196289062 28.21195220947266 64.13101196289062 C 35.61843109130859 64.13101196289062 42.70053100585938 61.03182983398438 48.15363311767578 55.40435028076172 C 59.47199249267578 43.72405242919922 64.01251220703125 20.92505264282227 52.90385437011719 9.036270141601562 C 46.72307205200195 2.421432495117188 34.96435165405273 -1.852767944335938 22.94711303710938 -1.852767944335938 M 22.94711685180664 -9.852775573730469 C 36.38920211791992 -9.852775573730469 50.67349243164062 -5.06842041015625 58.74923324584961 3.574451446533203 C 73.13889312744141 18.97463226318359 67.80341339111328 46.62223052978516 53.8987922668457 60.97149276733398 C 39.99417495727539 75.32074737548828 17.52043533325195 76.37167358398438 3.130771636962891 60.97149276733398 C -11.25888824462891 45.5712890625 -17.56449127197266 13.71998977661133 -3.659847259521484 -0.6292686462402344 C 2.441238403320312 -6.925460815429688 12.43758773803711 -9.852775573730469 22.94711685180664 -9.852775573730469 Z" stroke="none" fill="#2e2e2e"/>
    </g>
    <path id="left-hand" d="M393.813,428.452s-21.2,103.706-35.334,77.2c-9.188-17.228-7.427-48.89-5.033-69.244,1.234-10.5,2.677-17.927,2.677-17.927" transform="translate(540.505)" fill="none" stroke="#2e2e2e" stroke-width="8"/>
    <g id="body" transform="translate(931.809 424.826)" fill="#8892bf">
      <path d="M 81.22138977050781 137 L 3.748400926589966 137 C 3.14874005317688 127.5694274902344 1.581210851669312 101.6332321166992 0.6931701302528381 75.03028106689453 C 0.04360195249319077 55.57093811035156 -0.1206025928258896 39.57777786254883 0.2051246762275696 27.49505043029785 C 0.3964201211929321 20.39925384521484 0.7596474289894104 14.62129974365234 1.284715533256531 10.32166385650635 C 1.555283784866333 8.106072425842285 1.869806528091431 6.272345542907715 2.219556570053101 4.871459484100342 C 2.597469329833984 3.357783317565918 2.905688285827637 2.793692350387573 2.982962369918823 2.667675256729126 C 3.277369976043701 2.373246431350708 4.321743011474609 1.531556725502014 7.356874465942383 0.5202547311782837 C 9.910011291503906 -0.3304271101951599 13.2051477432251 -1.080813407897949 17.15078353881836 -1.710063457489014 C 24.84789657592773 -2.937586307525635 34.50203323364258 -3.613631725311279 44.33476257324219 -3.613631725311279 C 53.79773712158203 -3.613631725311279 62.76523971557617 -2.973222494125366 69.58537292480469 -1.810404419898987 C 73.13414764404297 -1.205358862876892 76.05398559570312 -0.4746316373348236 78.26380920410156 0.3615047037601471 C 80.87917327880859 1.351064085960388 81.61148834228516 2.152004241943359 81.75489807128906 2.339130401611328 C 81.87019348144531 2.531038761138916 82.64494323730469 4.014210224151611 83.31294250488281 10.12423229217529 C 83.78464508056641 14.43861865997314 84.11292266845703 20.23491287231445 84.28867340087891 27.35207366943359 C 84.58755493164062 39.45605087280273 84.45339965820312 55.47904968261719 83.88992309570312 74.97600555419922 C 83.12068939208984 101.591423034668 81.74856567382812 127.5345001220703 81.22138977050781 137 Z" stroke="none"/>
      <path d="M 44.334716796875 0.386383056640625 C 22.75202941894531 0.386383056640625 9.283523559570312 3.477806091308594 6.244071960449219 5.189315795898438 C 2.497840881347656 15.73638916015625 3.880325317382812 76.43852233886719 7.490928649902344 133 L 77.44798278808594 133 C 80.62234497070312 76.21641540527344 81.79067993164062 15.38665008544922 78.42449188232422 4.787376403808594 C 75.64838409423828 3.179618835449219 64.80145263671875 0.386383056640625 44.334716796875 0.386383056640625 M 44.334716796875 -7.613632202148438 C 63.02203369140625 -7.613632202148438 81.2200927734375 -5.191207885742188 84.99999237060547 0 C 92.74802398681641 10.64091491699219 84.99999237060547 141 84.99999237060547 141 L -7.62939453125e-06 141 C -7.62939453125e-06 141 -8.904365539550781 9.6500244140625 -7.62939453125e-06 0 C 4.560325622558594 -4.942230224609375 24.71688842773438 -7.613632202148438 44.334716796875 -7.613632202148438 Z" stroke="none" fill="#2e2e2e"/>
    </g>
    <path id="right-hand-bottom" d="M473.088,427.1s25.537,34.643,17.6,60.593-72.254,1.914-72.254,1.914" transform="translate(540.505)" fill="none" stroke="#2e2e2e" stroke-width="8"/>
    <g id="javascript" transform="translate(990.139 461.124) rotate(-28)">
      <path id="js-bg" d="M0,0H40V40H0Z" fill="#f0db4f"/>
      <path id="js" d="M302.713,489.551c-.293-1.825-1.483-3.357-5.008-4.787-1.224-.563-2.589-.966-3-1.894a2.065,2.065,0,0,1-.072-1.171,1.925,1.925,0,0,1,2.532-1.087,2.786,2.786,0,0,1,1.627,1.51c1.726-1.118,1.722-1.11,2.928-1.878a7.462,7.462,0,0,0-.966-1.293,5.639,5.639,0,0,0-4.715-1.711c-.392.049-.787.1-1.179.152a5.347,5.347,0,0,0-2.837,1.673,5.237,5.237,0,0,0,.951,7.456c2.27,1.7,5.6,2.091,6.03,3.684.414,1.951-1.433,2.582-3.27,2.357a4.286,4.286,0,0,1-2.92-2.221c-1.5.867-1.5.867-3.038,1.753a6.761,6.761,0,0,0,1.361,1.852c2.9,2.939,10.148,2.795,11.449-1.654A5.493,5.493,0,0,0,302.713,489.551Zm-14.981-12.076h-3.741c0,3.232-.015,6.441-.015,9.673,0,2.057.106,3.943-.228,4.521-.548,1.137-1.966,1-2.612.776a3.212,3.212,0,0,1-1.38-1.433,1.925,1.925,0,0,0-.213-.342q-1.523.93-3.042,1.863a6.012,6.012,0,0,0,2.205,2.525,7.263,7.263,0,0,0,5.346.658,4.724,4.724,0,0,0,3.019-2.365c.852-1.57.669-3.471.662-5.574C287.751,484.346,287.732,480.916,287.732,477.475Z" transform="translate(-265.987 -459.091)" fill="#323330"/>
    </g>
    <g id="next-js" transform="translate(889.532 564.275) rotate(-30)">
      <circle id="bg" cx="19.5" cy="19.5" r="19.5" transform="translate(101.276 -58.675)" fill="#fff"/>
      <path id="n" d="M19.19.335c-.086.008-.36.035-.606.055A20.048,20.048,0,0,0,4.211,8.679,19.8,19.8,0,0,0,.68,17.418,15.31,15.31,0,0,0,.5,20.331a15.31,15.31,0,0,0,.18,2.913A20.083,20.083,0,0,0,14.361,39.4a21.145,21.145,0,0,0,4.223.876,36.841,36.841,0,0,0,3.832,0,20.193,20.193,0,0,0,7.206-2.108c.344-.176.411-.223.364-.262-.031-.023-1.5-1.99-3.257-4.368l-3.2-4.321-4.008-5.932c-2.205-3.261-4.02-5.928-4.035-5.928s-.031,2.631-.039,5.849c-.012,5.634-.016,5.861-.086,5.994a.711.711,0,0,1-.344.356c-.125.063-.235.074-.825.074h-.676l-.18-.113a.731.731,0,0,1-.262-.285l-.082-.176L13,21.223l.012-7.844.121-.152a1.073,1.073,0,0,1,.289-.239c.16-.078.223-.086.9-.086.8,0,.931.031,1.138.258.059.063,2.229,3.331,4.825,7.269s6.147,9.314,7.891,11.953l3.167,4.8.16-.106a20.531,20.531,0,0,0,4.109-3.605A19.911,19.911,0,0,0,40.32,23.244a15.31,15.31,0,0,0,.18-2.913,15.31,15.31,0,0,0-.18-2.913A20.083,20.083,0,0,0,26.639,1.258,21,21,0,0,0,22.475.386C22.1.347,19.515.3,19.19.335Zm8.188,12.1a.789.789,0,0,1,.395.461c.031.1.039,2.276.031,7.175l-.012,7.03-1.239-1.9-1.243-1.9v-5.11c0-3.3.016-5.161.039-5.251a.8.8,0,0,1,.387-.493c.16-.082.219-.09.833-.09.579,0,.68.008.809.078Z" transform="translate(100 -60)"/>
    </g>
    <g id="react" transform="translate(791.878 366.246)">
      <path id="rings" d="M215.7,95.815c0-2.65-3.318-5.161-8.406-6.718,1.174-5.185.652-9.311-1.647-10.632a3.575,3.575,0,0,0-1.826-.457v1.818a1.888,1.888,0,0,1,.929.212c1.109.636,1.59,3.057,1.215,6.172-.09.766-.236,1.574-.416,2.4a39.512,39.512,0,0,0-5.177-.889,39.774,39.774,0,0,0-3.392-4.077c2.658-2.47,5.153-3.824,6.849-3.824V78c-2.242,0-5.177,1.6-8.145,4.37-2.968-2.756-5.9-4.338-8.145-4.338v1.818c1.688,0,4.191,1.345,6.849,3.8a38.508,38.508,0,0,0-3.367,4.068,38.074,38.074,0,0,0-5.185.9c-.188-.815-.326-1.606-.424-2.364-.383-3.115.09-5.536,1.19-6.18a1.815,1.815,0,0,1,.938-.212V78.041a3.635,3.635,0,0,0-1.843.457c-2.291,1.321-2.8,5.438-1.622,10.607C179,90.67,175.7,93.173,175.7,95.815s3.318,5.161,8.406,6.718c-1.174,5.185-.652,9.311,1.647,10.632a3.584,3.584,0,0,0,1.835.457c2.242,0,5.177-1.6,8.145-4.37,2.968,2.756,5.9,4.338,8.145,4.338a3.635,3.635,0,0,0,1.843-.457c2.291-1.321,2.8-5.438,1.623-10.607C212.4,100.968,215.7,98.457,215.7,95.815Zm-10.616-5.438c-.3,1.052-.677,2.136-1.1,3.221-.334-.652-.685-1.3-1.068-1.957s-.775-1.288-1.174-1.908C202.9,89.9,204.016,90.116,205.085,90.377ZM201.35,99.06c-.636,1.1-1.288,2.144-1.965,3.115-1.215.106-2.446.163-3.685.163s-2.462-.057-3.669-.155q-1.015-1.455-1.973-3.1-.929-1.6-1.7-3.245c.506-1.093,1.076-2.185,1.688-3.253.636-1.1,1.288-2.144,1.965-3.115,1.215-.106,2.446-.163,3.685-.163s2.462.057,3.669.155q1.015,1.455,1.973,3.1.929,1.6,1.7,3.245C202.524,96.9,201.962,97.992,201.35,99.06ZM203.984,98c.44,1.093.815,2.185,1.125,3.245-1.068.261-2.193.481-3.359.652.4-.628.8-1.272,1.174-1.932S203.65,98.652,203.984,98Zm-8.267,8.7a33.608,33.608,0,0,1-2.267-2.609c.734.033,1.484.057,2.242.057s1.525-.016,2.267-.057A31.826,31.826,0,0,1,195.716,106.7Zm-6.066-4.8c-1.158-.171-2.275-.383-3.343-.644.3-1.052.677-2.136,1.1-3.221.334.652.685,1.3,1.068,1.957S189.251,101.278,189.65,101.9Zm6.025-16.967a33.611,33.611,0,0,1,2.267,2.609c-.734-.033-1.484-.057-2.242-.057s-1.525.016-2.267.057A31.823,31.823,0,0,1,195.676,84.93Zm-6.033,4.8c-.4.628-.8,1.272-1.174,1.932s-.726,1.3-1.06,1.957c-.44-1.093-.815-2.185-1.125-3.245C187.351,90.124,188.476,89.9,189.642,89.733ZM182.263,99.94c-2.886-1.231-4.753-2.845-4.753-4.126s1.867-2.9,4.753-4.126c.7-.3,1.468-.571,2.258-.823a39.159,39.159,0,0,0,1.834,4.965,38.607,38.607,0,0,0-1.81,4.941C183.739,100.519,182.973,100.242,182.263,99.94Zm4.386,11.651c-1.109-.636-1.59-3.057-1.215-6.172.09-.766.236-1.574.416-2.4a39.512,39.512,0,0,0,5.177.889,39.773,39.773,0,0,0,3.392,4.077c-2.658,2.47-5.153,3.824-6.849,3.824a1.946,1.946,0,0,1-.921-.22Zm19.34-6.213c.383,3.115-.09,5.536-1.19,6.18a1.815,1.815,0,0,1-.938.212c-1.688,0-4.191-1.345-6.849-3.8a38.508,38.508,0,0,0,3.367-4.068,38.072,38.072,0,0,0,5.185-.9A22.821,22.821,0,0,1,205.99,105.379Zm3.139-5.438c-.7.3-1.468.571-2.258.823a39.159,39.159,0,0,0-1.834-4.965,38.6,38.6,0,0,0,1.81-4.941c.807.253,1.574.53,2.291.832,2.886,1.231,4.753,2.845,4.753,4.126S212.015,98.717,209.129,99.94Z" fill="#61dafb"/>
      <circle id="center" cx="3.726" cy="3.726" r="3.726" transform="translate(191.966 92.089)" fill="#61dafb"/>
    </g>
    <g id="mongodb" transform="translate(1006.6 447.401) rotate(17)">
      <path id="pertiole" d="M15.9.087l.854,1.6a4.792,4.792,0,0,0,.645.8,22.406,22.406,0,0,1,2,2.266,19.693,19.693,0,0,1,3.12,6.292,15.472,15.472,0,0,1,.662,4.27,15.069,15.069,0,0,1-4.4,11.12,12.7,12.7,0,0,1-1.57,1.342c-.3,0-.436-.227-.558-.436a3.589,3.589,0,0,1-.436-1.255,6.064,6.064,0,0,1-.14-1.586v-.244C16.057,24.21,15.8.21,15.9.087Z" fill="#599636"/>
      <path id="light-green" d="M15.9.034c-.035-.07-.07-.017-.1.017a1.611,1.611,0,0,1-.3.96,4.6,4.6,0,0,1-.767.767,16.7,16.7,0,0,0-3.747,4.776,19.186,19.186,0,0,0-2.16,7.808,25.98,25.98,0,0,0,.627,5.508,16.7,16.7,0,0,0,4.375,6.885,19.117,19.117,0,0,0,1.55,1.325c.157,0,.174-.14.21-.244a4.78,4.78,0,0,0,.157-.68l.35-2.614Z" fill="#6cac48"/>
      <path id="dark-green" d="M16.754,28.845a2.386,2.386,0,0,1,.436-1.063,1.1,1.1,0,0,1-.488-.453,3.235,3.235,0,0,1-.26-.575,9.952,9.952,0,0,1-.366-2.248v-.453a2.173,2.173,0,0,0-.1.75,17.37,17.37,0,0,1-.314,2.353,2.094,2.094,0,0,1-.28.906.347.347,0,0,0,.017.122,10.407,10.407,0,0,1,.453,2.824v.35c0,.418-.017.33.33.47a1.529,1.529,0,0,1,.436.174c.1,0,.122-.087.122-.157l-.052-.575v-1.6a4.242,4.242,0,0,1,.07-.82Z" fill="#c2bfbf"/>
    </g>
    <g id="postgresql" transform="matrix(0.766, -0.643, 0.643, 0.766, 989.504, 462.727)">
      <path id="black" d="M20.781,13.048a1.042,1.042,0,0,0-.865-.7,1.981,1.981,0,0,0-.69.038,6.2,6.2,0,0,1-1.064.14,20.513,20.513,0,0,0,2.172-5.165c.721-2.79.336-4.061-.114-4.635A6.231,6.231,0,0,0,15.2.365a8.9,8.9,0,0,0-2.612.366,9.724,9.724,0,0,0-1.527-.14,4.965,4.965,0,0,0-2.66.655A12.129,12.129,0,0,0,6.518.775a5.818,5.818,0,0,0-4.4.7C.806,2.4.2,4.009.31,6.257A27.49,27.49,0,0,0,1.374,11.2a17.075,17.075,0,0,0,1.145,2.922,3.619,3.619,0,0,0,1.849,1.928,1.817,1.817,0,0,0,1.8-.39,1.573,1.573,0,0,0,.378.326,2.517,2.517,0,0,0,.714.3,3.833,3.833,0,0,0,2.5-.149c0,.13.008.253.011.36,0,.173.01.344.016.5a8.8,8.8,0,0,0,.333,2.5c.012.032.028.081.045.133a3.006,3.006,0,0,0,.749,1.32,2.235,2.235,0,0,0,1.581.588,3.552,3.552,0,0,0,.739-.082,3.473,3.473,0,0,0,2.335-1.351,7.759,7.759,0,0,0,.966-4.261c.007-.059.013-.115.02-.168l.013-.11.145.013.037,0a5.718,5.718,0,0,0,2.392-.414c.477-.221,2.007-1.029,1.647-2.119" transform="translate(0)"/>
      <path id="blue" d="M29.569,23.426c-2.392.493-2.556-.316-2.556-.316,2.525-3.747,3.581-8.5,2.67-9.667-2.485-3.175-6.787-1.674-6.859-1.635l-.023,0a8.53,8.53,0,0,0-1.6-.166,3.941,3.941,0,0,0-2.526.756S11,9.24,11.361,16.378c.076,1.518,2.176,11.49,4.682,8.478.916-1.1,1.8-2.033,1.8-2.033a2.323,2.323,0,0,0,1.517.387l.043-.036a1.671,1.671,0,0,0,.017.429c-.645.721-.456.848-1.746,1.113-1.306.269-.539.748-.038.873a2.653,2.653,0,0,0,2.961-.962l-.038.152a4.311,4.311,0,0,1,.4,2.328,6.413,6.413,0,0,0,.15,2.247c.2.542.4,1.762,2.094,1.4a2.5,2.5,0,0,0,2.254-2.4c.072-.933.237-.8.247-1.63l.132-.4c.152-1.265.024-1.673.9-1.484l.212.019a4.837,4.837,0,0,0,1.977-.333c1.063-.493,1.693-1.317.645-1.1h0" transform="translate(-10.163 -10.165)" fill="#336791"/>
      <path id="eyes" d="M101.347,79.694a.742.742,0,0,0-.509.073.187.187,0,0,0-.077.124.363.363,0,0,0,.088.238.666.666,0,0,0,.423.264.481.481,0,0,0,.068,0,.548.548,0,0,0,.519-.353c.026-.188-.247-.313-.511-.35m7.14.006c-.021-.147-.283-.189-.531-.155s-.489.147-.469.294a.5.5,0,0,0,.469.311.448.448,0,0,0,.063,0,.6.6,0,0,0,.341-.187.376.376,0,0,0,.128-.259" transform="translate(-92.383 -72.803)" fill="#fff"/>
      <path id="white" d="M26.782,19.644c-.091-.276-.385-.364-.872-.264-1.448.3-1.967.092-2.137-.034a19.909,19.909,0,0,0,2.551-5.721,10.87,10.87,0,0,0,.378-2.46A2.657,2.657,0,0,0,26.317,9.5a5.658,5.658,0,0,0-4.574-2.136,7.837,7.837,0,0,0-2.644.417,6.592,6.592,0,0,0-1.488-.191,4.3,4.3,0,0,0-2.55.7,11.382,11.382,0,0,0-2.072-.543,5.277,5.277,0,0,0-3.964.609c-1.136.8-1.66,2.243-1.559,4.275a26.838,26.838,0,0,0,1.038,4.8c.809,2.651,1.689,4.152,2.614,4.46a1.171,1.171,0,0,0,.371.061,1.55,1.55,0,0,0,1.182-.67q.788-.945,1.629-1.844a2.625,2.625,0,0,0,1.172.315c0,.011,0,.021,0,.032q-.106.126-.207.255c-.283.36-.342.434-1.254.622-.259.054-.948.2-.958.678-.011.528.814.749.908.773a3.89,3.89,0,0,0,.944.122,2.748,2.748,0,0,0,1.891-.706,17.9,17.9,0,0,0,.288,4.3,2.158,2.158,0,0,0,2.064,1.592,3.311,3.311,0,0,0,.693-.079,2.618,2.618,0,0,0,2.386-2.429c.134-.776.364-2.628.472-3.621a2.918,2.918,0,0,0,.839.1,5,5,0,0,0,1.9-.363c.538-.25,1.509-.863,1.333-1.4ZM23.235,12.93a6.025,6.025,0,0,1-.088.837,7.735,7.735,0,0,0-.106.983,7.456,7.456,0,0,0,.078,1.112,3.96,3.96,0,0,1-.173,2.258,2.935,2.935,0,0,1-.157-.322c-.044-.107-.14-.278-.272-.515-.515-.923-1.72-3.084-1.1-3.966.184-.262.65-.532,1.821-.387ZM21.816,7.961A5,5,0,0,1,25.85,9.869c.737.942-.075,5.227-2.424,8.924l-.071-.09-.03-.037a4.177,4.177,0,0,0,.383-2.874,6.892,6.892,0,0,1-.074-1.022,7.238,7.238,0,0,1,.1-.912,5.758,5.758,0,0,0,.093-1.129.468.468,0,0,0,.01-.159A6.338,6.338,0,0,0,22.39,9.851a6.512,6.512,0,0,0-2.3-1.728,7.748,7.748,0,0,1,1.724-.162Zm-9.6,12.949c-.474.57-.8.461-.91.425-.7-.234-1.517-1.718-2.235-4.071a26.6,26.6,0,0,1-1.013-4.658c-.091-1.816.349-3.081,1.308-3.761,1.56-1.107,4.126-.444,5.157-.108l-.045.043c-1.692,1.708-1.652,4.627-1.647,4.806,0,.069.006.166.014.3a12.076,12.076,0,0,1-.061,2.439,3.085,3.085,0,0,0,.813,2.582q.1.1.21.2c-.29.31-.92,1-1.59,1.8ZM14.023,18.5a2.5,2.5,0,0,1-.654-2.09,12.625,12.625,0,0,0,.066-2.557c0-.072-.008-.134-.01-.184a3.255,3.255,0,0,1,2.209-.646.9.9,0,0,1,.694.776,5.418,5.418,0,0,1-.276,3.959c-.07.156-.137.3-.193.456l-.044.118a7.727,7.727,0,0,0-.279.838,2.109,2.109,0,0,1-1.513-.671Zm.086,3.048a1.31,1.31,0,0,1-.4-.17,1.931,1.931,0,0,1,.421-.125c1.073-.221,1.238-.377,1.6-.836.083-.105.177-.225.307-.37h0c.194-.217.283-.18.443-.114a.627.627,0,0,1,.309.4.442.442,0,0,1-.038.372A2.345,2.345,0,0,1,14.109,21.547Zm5.613,5.223a1.6,1.6,0,0,1-2.083-1.154,23.54,23.54,0,0,1-.226-5.183.3.3,0,0,0-.013-.094,1.242,1.242,0,0,0-.037-.174,1.2,1.2,0,0,0-.652-.782.919.919,0,0,0-.6-.073,7.249,7.249,0,0,1,.258-.773l.044-.119c.05-.134.112-.272.178-.419a5.994,5.994,0,0,0,.315-4.327,1.545,1.545,0,0,0-1.866-1.262,4.306,4.306,0,0,0-1.428.445c-.059.03-.113.059-.164.087A6.234,6.234,0,0,1,14.9,9.2a3.562,3.562,0,0,1,2.7-1.01,5.722,5.722,0,0,1,4.372,2.089,6.635,6.635,0,0,1,1.2,2.052c-1.106-.113-1.859.106-2.24.651-.83,1.186.454,3.488,1.071,4.594.113.2.211.378.242.452a4.108,4.108,0,0,0,.651,1.049c.058.073.115.143.158.2-.335.1-.937.32-.882,1.435-.044.56-.359,3.18-.519,4.106a2.031,2.031,0,0,1-1.927,1.95ZM25.2,20.5a4.321,4.321,0,0,1-1.461.3,1.832,1.832,0,0,1-.98-.126c-.034-.7.225-.768.5-.845.043-.012.085-.024.126-.038a1.024,1.024,0,0,0,.083.061,3.625,3.625,0,0,0,2.563.1l.013,0a3.278,3.278,0,0,1-.844.545Z" transform="translate(-6.58 -6.439)" fill="#fff"/>
    </g>
    <g id="typescript" transform="matrix(0.94, -0.342, 0.342, 0.94, 971.044, 475.738)">
      <path id="ts-bg" d="M0,20V0H40V40H0" fill="#007acc"/>
      <path id="ts" d="M87.7,183.766v1.518h4.844V199.07h3.437V185.284h4.844v-1.49a11.61,11.61,0,0,0-.037-1.537c0-.028-2.953-.037-6.539-.037l-6.52.028v1.528Zm21.768-1.556a4.51,4.51,0,0,1,2.329,1.332,5.861,5.861,0,0,1,.894,1.192c0,.056-1.611,1.146-2.589,1.751-.037.028-.186-.13-.335-.373a2.13,2.13,0,0,0-1.751-1.043c-1.118-.074-1.863.512-1.863,1.49a1.472,1.472,0,0,0,.168.708c.251.512.717.82,2.161,1.453,2.664,1.146,3.819,1.9,4.518,2.981a5.427,5.427,0,0,1,.438,4.536,4.972,4.972,0,0,1-4.126,2.953,11.618,11.618,0,0,1-2.841-.028,7.032,7.032,0,0,1-3.791-1.984,6.658,6.658,0,0,1-.969-1.434l.354-.224,1.4-.81,1.053-.615.242.326a5.068,5.068,0,0,0,1.4,1.36,3.463,3.463,0,0,0,3.633-.186,1.4,1.4,0,0,0,.494-1.118,1.437,1.437,0,0,0-.279-.95c-.3-.41-.894-.745-2.571-1.49a9.35,9.35,0,0,1-3.512-2.142,5.291,5.291,0,0,1-1.025-1.863,7.134,7.134,0,0,1-.056-2.394,4.538,4.538,0,0,1,3.819-3.539,9.028,9.028,0,0,1,2.832.093Z" transform="translate(-76.789 -162.33)" fill="#fff"/>
    </g>
    <g id="bootstrap" transform="translate(963.629 469.668) rotate(9)">
      <path id="b-bg" d="M0,26.132A3.868,3.868,0,0,0,3.868,30H26.132A3.868,3.868,0,0,0,30,26.132V3.868A3.868,3.868,0,0,0,26.132,0H3.868A3.868,3.868,0,0,0,0,3.868V26.132Z" fill="#563d7c"/>
      <path id="b" d="M76.069,57.852V53.6h3.74a5.817,5.817,0,0,1,1.03.089,2.572,2.572,0,0,1,.878.318,1.7,1.7,0,0,1,.611.636,2.112,2.112,0,0,1,.229,1.043,1.922,1.922,0,0,1-.687,1.654,2.871,2.871,0,0,1-1.755.509H76.069ZM72.075,50.5V68.664h8.8a9.286,9.286,0,0,0,2.379-.305,6.362,6.362,0,0,0,2.061-.941,4.636,4.636,0,0,0,1.437-1.641,5.552,5.552,0,0,0-.292-5.291,4.366,4.366,0,0,0-2.506-1.692,4.527,4.527,0,0,0,1.845-1.5A3.979,3.979,0,0,0,86.423,55,4.872,4.872,0,0,0,86,52.866a3.491,3.491,0,0,0-1.183-1.386,5.106,5.106,0,0,0-1.832-.75,11.308,11.308,0,0,0-2.366-.229Zm3.994,15.06V60.574h4.35a3.365,3.365,0,0,1,2.086.6,2.349,2.349,0,0,1,.789,2,2.5,2.5,0,0,1-.242,1.17,1.92,1.92,0,0,1-.649.725,2.747,2.747,0,0,1-.941.382,5.341,5.341,0,0,1-1.119.114Z" transform="translate(-63.629 -44.582)" fill="#fff"/>
    </g>
    <path id="right-hand-top" d="M490.685,487.691c-7.941,25.95-72.254,1.914-72.254,1.914" transform="translate(540.505)" fill="none" stroke="#2e2e2e" stroke-width="8"/>
    <path id="pant" d="M397.841,541.835l71.79-.424-.874,16.406-70.011.1Z" transform="translate(540.505)" opacity="0.3"/>
    <path id="left-leg" d="M394.7,565.826s-.966,34.4,0,68c.886,30.837,4.1,96.646,4.1,100.057,0,7.092-13.936,8.088-13.936,8.088" transform="translate(540.605 -5)" fill="none" stroke="#2f2f2f" stroke-width="8"/>
    <path id="right-leg" d="M388.971,565.826s.966,33.519,0,67.118c-.886,30.837-4.1,97.529-4.1,100.94,0,7.092,13.936,8.088,13.936,8.088" transform="translate(623.508 -5)" fill="none" stroke="#2f2f2f" stroke-width="8"/>
  </g>
</svg>
